<svg id="menu" xmlns="http://www.w3.org/2000/svg" width="37.727" height="27.247" viewBox="0 0 37.727 27.247">
  <path id="Path_9928" data-name="Path 9928" d="M36.155,125.812H1.572a1.572,1.572,0,1,1,0-3.144H36.155a1.572,1.572,0,1,1,0,3.144Zm0,0" transform="translate(0 -110.616)"/>
  <path id="Path_9929" data-name="Path 9929" d="M36.155,3.144H1.572A1.572,1.572,0,0,1,1.572,0H36.155a1.572,1.572,0,1,1,0,3.144Zm0,0"/>
  <path id="Path_9930" data-name="Path 9930" d="M36.155,248.476H1.572a1.572,1.572,0,0,1,0-3.144H36.155a1.572,1.572,0,1,1,0,3.144Zm0,0" transform="translate(0 -221.229)"/>
</svg>
